<svg width="52" height="52" viewBox="0 0 52 52" fill="none" xmlns="http://www.w3.org/2000/svg">
<g clip-path="url(#clip0)">
<path d="M51.9485 14.1607C51.6716 12.4898 50.2254 11.2652 48.5319 11.2675C47.0725 11.2718 45.7729 12.1917 45.2837 13.5666L34.6568 12.6002C34.6141 12.0297 34.4769 11.4702 34.2506 10.9445L41.871 6.01554C43.283 7.29628 45.4659 7.18988 46.7466 5.77784C48.0273 4.3658 47.9209 2.18296 46.5089 0.902222C45.0969 -0.378516 42.914 -0.272113 41.6333 1.13992C41.0539 1.77878 40.7345 2.6115 40.7383 3.47398C40.743 3.84396 40.8076 4.21069 40.9297 4.55988L33.3094 9.49579C31.3789 7.38114 28.0997 7.23177 25.9851 9.16218C25.4341 9.66519 24.9982 10.2811 24.707 10.9679L15.56 8.76753C16.0974 4.49699 13.0712 0.599248 8.80063 0.0618187C4.52999 -0.475611 0.632351 2.55066 0.0949211 6.8212C-0.442508 11.0917 2.58377 14.9895 6.8543 15.5269C7.0893 15.5565 7.32538 15.5753 7.5621 15.5834L8.30855 25.282C5.5268 25.9725 3.83149 28.7873 4.52187 31.569C4.8768 32.9989 5.82274 34.2106 7.12393 34.9019L3.73634 45.0629C3.65754 45.0577 3.58307 45.0395 3.50254 45.0395C1.58046 45.0304 0.0150374 46.5812 0.00594493 48.5033C-0.00314753 50.4254 1.54766 51.9908 3.46974 51.9999C5.39182 52.009 6.95724 50.4582 6.96633 48.5361C6.97185 47.3521 6.37521 46.2467 5.38251 45.6015L8.7675 35.4465C9.29476 35.5366 9.8336 35.5366 10.3609 35.4465L13.7467 45.6015C12.1494 46.6446 11.7 48.7851 12.7431 50.3824C13.7861 51.9798 15.9266 52.4291 17.524 51.3861C19.1213 50.343 19.5706 48.2025 18.5276 46.6052C17.8879 45.6256 16.7958 45.0363 15.6258 45.0395C15.5453 45.0395 15.4708 45.0577 15.392 45.0629L12.0044 34.9027C14.5352 33.5501 15.4901 30.4021 14.1375 27.8713C13.3144 26.3315 11.773 25.3079 10.0344 25.1469L9.28967 15.4561C11.9886 14.9356 14.2154 13.0348 15.153 10.4509L24.3035 12.647C24.2948 12.7639 24.2853 12.8808 24.2853 12.9994C24.2984 15.8688 26.6353 18.1844 29.5047 18.1713C31.8456 18.1606 33.8902 16.5857 34.4983 14.3252L45.1244 15.2916C45.4366 17.176 47.2175 18.4505 49.1019 18.1382C50.9863 17.8259 52.2607 16.0451 51.9485 14.1607ZM44.2021 1.74208C45.1587 1.74208 45.934 2.51743 45.934 3.47398C45.934 4.43053 45.1587 5.20588 44.2021 5.20588C43.2456 5.20588 42.4702 4.43053 42.4702 3.47398C42.4702 2.51743 43.2456 1.74208 44.2021 1.74208ZM3.50254 50.2352C2.54599 50.2352 1.77064 49.4599 1.77064 48.5033C1.77064 47.5468 2.54599 46.7714 3.50254 46.7714C4.45909 46.7714 5.23443 47.5468 5.23443 48.5033C5.23443 49.4599 4.45909 50.2352 3.50254 50.2352ZM15.6258 46.7714C16.5824 46.7714 17.3577 47.5468 17.3577 48.5033C17.3577 49.4599 16.5824 50.2352 15.6258 50.2352C14.6693 50.2352 13.8939 49.4599 13.8939 48.5033C13.8939 47.5468 14.6693 46.7714 15.6258 46.7714ZM9.56418 26.8546C11.4772 26.8546 13.028 28.4054 13.028 30.3184C13.028 32.2314 11.4772 33.7822 9.56418 33.7822C7.65119 33.7822 6.10038 32.2314 6.10038 30.3184C6.10038 28.4054 7.65119 26.8546 9.56418 26.8546ZM7.83228 13.8654C4.48452 13.8654 1.77064 11.1515 1.77064 7.80372C1.77064 4.45597 4.48452 1.74208 7.83228 1.74208C11.18 1.74208 13.8939 4.45597 13.8939 7.80372C13.8901 11.1499 11.1784 13.8616 7.83228 13.8654ZM29.481 16.4632C27.568 16.4632 26.0172 14.9124 26.0172 12.9994C26.0172 11.0864 27.568 9.53562 29.481 9.53562C31.394 9.53562 32.9448 11.0864 32.9448 12.9994C32.9448 14.9124 31.394 16.4632 29.481 16.4632ZM48.5319 16.4632C47.5753 16.4632 46.8 15.6879 46.8 14.7313C46.8 13.7748 47.5753 12.9994 48.5319 12.9994C49.4884 12.9994 50.2638 13.7748 50.2638 14.7313C50.2638 15.6879 49.4884 16.4632 48.5319 16.4632Z" fill="#5DC1D3"/>
<path d="M45.3134 36.4596C44.9451 36.4066 44.5734 36.38 44.2014 36.3801C40.9778 36.3854 38.0895 38.3734 36.9335 41.3827L29.4569 39.4325C29.4707 39.2819 29.4803 39.1312 29.4803 38.9779C29.4812 37.7628 29.0542 36.5861 28.274 35.6544L33.1605 29.9539C33.6309 30.1906 34.1495 30.3153 34.6759 30.3184C36.598 30.3274 38.1634 28.7765 38.1724 26.8544C38.1814 24.9323 36.6305 23.3669 34.7084 23.3579C32.7863 23.3489 31.2209 24.8999 31.2119 26.8219C31.2086 27.5409 31.428 28.2432 31.84 28.8325L26.9569 34.5304C26.1512 34.0415 25.2269 33.7827 24.2846 33.7822C24.198 33.7822 24.1114 33.7909 24.0248 33.7952L22.3942 26.4615C24.0896 25.5888 24.7566 23.5071 23.884 21.8117C23.0113 20.1163 20.9296 19.4493 19.2341 20.3219C17.5387 21.1946 16.8717 23.2763 17.7444 24.9717C18.3182 26.0866 19.4514 26.8028 20.7047 26.8425L22.3327 34.1676C19.6725 35.2435 18.3883 38.2723 19.4643 40.9324C20.5402 43.5926 23.569 44.8768 26.229 43.8008C27.4733 43.2976 28.4746 42.3323 29.0229 41.1073L36.4943 43.0583C35.8812 47.3157 38.8355 51.2641 43.093 51.8772C47.3504 52.4903 51.2988 49.536 51.9119 45.2786C52.5252 41.0211 49.5709 37.0727 45.3134 36.4596ZM34.6759 25.1227C35.6325 25.1227 36.4078 25.8981 36.4078 26.8546C36.4078 27.8112 35.6325 28.5865 34.6759 28.5865C33.7194 28.5865 32.944 27.8112 32.944 26.8546C32.944 25.8981 33.7194 25.1227 34.6759 25.1227ZM20.8208 25.1227C19.8642 25.1227 19.0889 24.3474 19.0889 23.3908C19.0889 22.4343 19.8642 21.6589 20.8208 21.6589C21.7773 21.6589 22.5527 22.4343 22.5527 23.3908C22.5527 24.3474 21.7773 25.1227 20.8208 25.1227ZM24.2846 42.4417C22.3716 42.4417 20.8208 40.8909 20.8208 38.9779C20.8208 37.0649 22.3716 35.5141 24.2846 35.5141C26.1975 35.5141 27.7484 37.0649 27.7484 38.9779C27.7484 40.8909 26.1975 42.4417 24.2846 42.4417ZM44.2014 50.2352C40.8536 50.2352 38.1397 47.5214 38.1397 44.1736C38.1397 40.8258 40.8536 38.112 44.2014 38.112C47.5491 38.112 50.263 40.8258 50.263 44.1736C50.2592 47.5197 47.5475 50.2315 44.2014 50.2352Z" fill="#5DC1D3"/>
</g>
<defs>
<clipPath id="clip0">
<rect width="52" height="52" fill="white"/>
</clipPath>
</defs>
</svg>
