<svg width="60" height="60" viewBox="0 0 60 60" fill="none" xmlns="http://www.w3.org/2000/svg">
<path d="M54 6.00012H28C24.6876 6.00337 22.0033 8.68775 22 12.0001V24.0001H6C2.68762 24.0034 0.00325 26.6877 0 30.0001V44.0001C0.003625 46.9267 2.115 49.4252 5 49.9171V53.0001C5.00012 53.5524 5.44788 54 6.00025 53.9999C6.26537 53.9999 6.5195 53.8945 6.707 53.7071L10.414 50.0001H32C35.3124 49.9969 37.9967 47.3125 38 44.0001V32.0001H49.586L53.293 35.7071C53.6836 36.0976 54.3167 36.0975 54.7072 35.7069C54.8946 35.5194 55 35.2651 55 35.0001V31.9171C57.885 31.4252 59.9964 28.9267 60 26.0001V12.0001C59.9967 8.68775 57.3124 6.00337 54 6.00012ZM36 44.0001C36 46.2092 34.2091 48.0001 32 48.0001H10C9.73475 48.0001 9.4805 48.1056 9.293 48.2931L7 50.5861V49.0001C7 48.4479 6.55225 48.0001 6 48.0001C3.79087 48.0001 2 46.2092 2 44.0001V30.0001C2 27.791 3.79087 26.0001 6 26.0001H32C34.2091 26.0001 36 27.791 36 30.0001V44.0001ZM58 26.0001C58 28.2092 56.2091 30.0001 54 30.0001C53.4478 30.0001 53 30.4479 53 31.0001V32.5861L50.707 30.2931C50.5195 30.1056 50.2653 30.0001 50 30.0001H38C37.9967 26.6877 35.3124 24.0034 32 24.0001H24V12.0001C24 9.791 25.7909 8.00012 28 8.00012H54C56.2091 8.00012 58 9.791 58 12.0001V26.0001Z" fill="#5DC1D3"/>
<path d="M11 34.0001C9.34312 34.0001 8 35.3432 8 37.0001C8 38.657 9.34312 40.0001 11 40.0001C12.6569 40.0001 14 38.657 14 37.0001C14 35.3432 12.6569 34.0001 11 34.0001ZM11 38.0001C10.4478 38.0001 10 37.5524 10 37.0001C10 36.4479 10.4478 36.0001 11 36.0001C11.5522 36.0001 12 36.4479 12 37.0001C12 37.5524 11.5522 38.0001 11 38.0001Z" fill="#5DC1D3"/>
<path d="M19 34.0001C17.3431 34.0001 16 35.3432 16 37.0001C16 38.657 17.3431 40.0001 19 40.0001C20.6569 40.0001 22 38.657 22 37.0001C22 35.3432 20.6569 34.0001 19 34.0001ZM19 38.0001C18.4478 38.0001 18 37.5524 18 37.0001C18 36.4479 18.4478 36.0001 19 36.0001C19.5522 36.0001 20 36.4479 20 37.0001C20 37.5524 19.5522 38.0001 19 38.0001Z" fill="#5DC1D3"/>
<path d="M27 34.0001C25.3431 34.0001 24 35.3432 24 37.0001C24 38.657 25.3431 40.0001 27 40.0001C28.6569 40.0001 30 38.657 30 37.0001C30 35.3432 28.6569 34.0001 27 34.0001ZM27 38.0001C26.4477 38.0001 26 37.5524 26 37.0001C26 36.4479 26.4477 36.0001 27 36.0001C27.5522 36.0001 28 36.4479 28 37.0001C28 37.5524 27.5522 38.0001 27 38.0001Z" fill="#5DC1D3"/>
<path d="M46 12.0001H28V14.0001H46V12.0001Z" fill="#5DC1D3"/>
<path d="M54 12.0001H48V14.0001H54V12.0001Z" fill="#5DC1D3"/>
<path d="M34 16.0002H28V18.0002H34V16.0002Z" fill="#5DC1D3"/>
<path d="M48 16.0002H36V18.0002H48V16.0002Z" fill="#5DC1D3"/>
<path d="M54 20.0002H28V22.0002H54V20.0002Z" fill="#5DC1D3"/>
<path d="M46 24.0001H38V26.0001H46V24.0001Z" fill="#5DC1D3"/>
<path d="M54 24.0001H48V26.0001H54V24.0001Z" fill="#5DC1D3"/>
<path d="M54 16.0002H50V18.0002H54V16.0002Z" fill="#5DC1D3"/>
</svg>
