<svg width="30" height="26" viewBox="0 0 30 26" fill="none" xmlns="http://www.w3.org/2000/svg">
<path d="M23.0358 15.143H21.9643C21.8078 15.143 21.6793 15.1931 21.5794 15.2939C21.4787 15.394 21.4286 15.5224 21.4286 15.6787V21.0358C21.4286 21.7724 21.1665 22.4029 20.642 22.9275C20.1174 23.452 19.4868 23.7141 18.7501 23.7141H4.82133C4.08474 23.7141 3.4541 23.452 2.92948 22.9275C2.40498 22.403 2.14276 21.7725 2.14276 21.0358V7.10722C2.14276 6.37063 2.40492 5.74023 2.92948 5.21567C3.4541 4.69105 4.08474 4.42889 4.82133 4.42889H16.6069C16.7634 4.42889 16.8918 4.37852 16.9922 4.27819C17.0925 4.17775 17.1426 4.04951 17.1426 3.89312V2.82154C17.1426 2.66545 17.0925 2.53698 16.9922 2.43671C16.8918 2.33627 16.7634 2.28613 16.6069 2.28613H4.82133C3.49333 2.28613 2.35766 2.75769 1.41443 3.70074C0.471555 4.64373 0 5.7794 0 7.1074V21.036C0 22.364 0.471555 23.4998 1.41449 24.4425C2.35772 25.3856 3.49339 25.8574 4.82139 25.8574H18.7501C20.078 25.8574 21.2138 25.3856 22.1569 24.4425C23.1001 23.4998 23.5717 22.364 23.5717 21.036V15.6791C23.5717 15.5226 23.5215 15.3942 23.4207 15.2939C23.3203 15.1931 23.1919 15.143 23.0358 15.143Z" fill="#ABC738"/>
<path d="M29.6831 0.461111C29.471 0.249022 29.2196 0.143066 28.9296 0.143066H20.3582C20.0681 0.143066 19.8168 0.249022 19.6049 0.461111C19.3928 0.673081 19.2866 0.924221 19.2866 1.21441C19.2866 1.50461 19.3928 1.7558 19.6049 1.96789L22.5512 4.91426L11.6362 15.8295C11.5245 15.9411 11.4688 16.0695 11.4688 16.2143C11.4688 16.3597 11.5246 16.488 11.6362 16.5996L13.5447 18.5079C13.6563 18.6195 13.7847 18.6751 13.9298 18.6751C14.0749 18.6751 14.2033 18.6195 14.3149 18.5079L25.2299 7.59283L28.1765 10.5392C28.3884 10.7513 28.6396 10.8574 28.9298 10.8574C29.22 10.8574 29.4712 10.7513 29.6833 10.5392C29.8954 10.3272 30.0014 10.0761 30.0014 9.78589V1.21441C30.0013 0.924045 29.895 0.673081 29.6831 0.461111Z" fill="#ABC738"/>
</svg>
