<svg width="21" height="20" viewBox="0 0 21 20" fill="none" xmlns="http://www.w3.org/2000/svg">
<g clip-path="url(#clip0)">
<path d="M19.5738 2.72729H0.601382C0.351579 2.72729 0.149658 2.93048 0.149658 3.18184V16.8182C0.149658 17.0696 0.351579 17.2727 0.601382 17.2727H19.5738C19.8231 17.2727 20.0255 17.0696 20.0255 16.8182V3.18184C20.0255 2.93048 19.8231 2.72729 19.5738 2.72729ZM19.1221 15.2641L13.5261 9.63366L12.8874 10.2764L18.9369 16.3637H1.23831L7.2878 10.2764L6.64907 9.63366L1.05311 15.2641V3.63639H19.1221V15.2641Z" fill="#5DC1D3"/>
<path d="M18.2093 3.63647L10.0878 11.8087L1.96622 3.63647H1.05328V4.00329L9.7684 12.7728C9.94502 12.9506 10.2305 12.9506 10.4071 12.7728L19.1222 4.00329V3.63647H18.2093Z" fill="#5DC1D3"/>
</g>
<defs>
<clipPath id="clip0">
<rect width="19.8759" height="20" fill="white" transform="translate(0.149658)"/>
</clipPath>
</defs>
</svg>
