<svg width="38" height="52" viewBox="0 0 38 52" fill="none" xmlns="http://www.w3.org/2000/svg">
<g clip-path="url(#clip0)">
<path d="M19.1752 38.066H19.1207C18.0146 38.0554 16.9555 37.6136 16.165 36.833C15.3745 36.0524 14.914 34.9937 14.8799 33.8784C14.8799 33.7605 14.8799 33.6466 14.8799 33.5327L4.80159 23.3189C4.70424 23.3189 4.60299 23.3189 4.50563 23.3424H4.30702C3.20431 23.326 2.15086 22.8789 1.36822 22.0951C0.585593 21.3113 0.134766 20.2518 0.110555 19.1396C0.0863452 18.0274 0.490638 16.949 1.23841 16.1313C1.98618 15.3136 3.01916 14.8202 4.1201 14.755C4.41442 14.7426 4.70923 14.7597 5.0002 14.8061L14.7085 4.98511C14.6866 4.84459 14.6723 4.70295 14.6657 4.56084C14.6439 3.42818 15.0615 2.33171 15.8296 1.50518C16.5976 0.678637 17.6553 0.187395 18.7771 0.136163C19.899 0.0849309 20.9964 0.47776 21.8353 1.23092C22.6742 1.98407 23.1883 3.03798 23.2681 4.16801C23.2798 4.35769 23.2798 4.54793 23.2681 4.73762L33.1322 14.7314C33.2568 14.7314 33.3775 14.7079 33.5216 14.7C34.3715 14.6645 35.2129 14.8837 35.9394 15.3299C36.666 15.7762 37.2454 16.4295 37.6044 17.2074C37.9634 17.9854 38.086 18.8531 37.9567 19.7013C37.8275 20.5494 37.4521 21.34 36.8781 21.9732C36.304 22.6064 35.5569 23.054 34.731 23.2595C33.9051 23.4649 33.0374 23.4191 32.2373 23.1277C31.4371 22.8364 30.7405 22.3125 30.2351 21.6222C29.7298 20.932 29.4383 20.1062 29.3976 19.2491C29.3859 19.0144 29.3937 18.7792 29.421 18.5459L19.662 8.64243C19.4983 8.66916 19.3332 8.68621 19.1674 8.6935C18.951 8.69421 18.7348 8.67713 18.521 8.64243L8.56732 18.7423C8.56732 18.7777 8.56732 18.8091 8.56732 18.8405C8.58684 19.0719 8.58684 19.3045 8.56732 19.5358L18.3458 29.4629C18.5718 29.4186 18.801 29.3923 19.0312 29.3843C20.1672 29.3457 21.272 29.764 22.1024 30.5472C22.9327 31.3303 23.4207 32.4141 23.4589 33.5602C23.4971 34.7062 23.0825 35.8207 22.3061 36.6583C21.5298 37.4959 20.4554 37.9882 19.3193 38.0267L19.1752 38.066ZM5.20659 22.0382L16.1105 33.0927L16.0793 33.3755C16.0675 33.5298 16.0675 33.6848 16.0793 33.8391C16.1034 34.6507 16.438 35.4214 17.013 35.9897C17.5879 36.558 18.3586 36.8798 19.1636 36.8875H19.3115C20.1409 36.8568 20.9242 36.4949 21.4891 35.8816C22.054 35.2683 22.3542 34.4538 22.3237 33.6171C22.2933 32.7805 21.9346 31.9904 21.3266 31.4205C20.7186 30.8507 19.9111 30.5478 19.0818 30.5785C18.8273 30.5858 18.5748 30.6254 18.3302 30.6964L17.9992 30.7907L7.29391 19.9365L7.35232 19.6301C7.39688 19.388 7.41257 19.1414 7.39905 18.8955C7.39905 18.7973 7.39905 18.6991 7.37569 18.6048L7.33285 18.318L18.1121 7.40106L18.4159 7.45606C18.6461 7.49534 18.8796 7.51113 19.1129 7.5032C19.3175 7.49205 19.5208 7.46313 19.7204 7.41678L20.0398 7.33821L30.6749 18.1295L30.6165 18.4359C30.5336 18.874 30.5435 19.3249 30.6455 19.7588C30.7476 20.1928 30.9395 20.6001 31.2086 20.954C31.4778 21.3078 31.8181 21.6003 32.2072 21.8121C32.5963 22.0238 33.0255 22.1502 33.4664 22.1828C33.9074 22.2155 34.3502 22.1536 34.7658 22.0014C35.1814 21.8491 35.5604 21.6099 35.8778 21.2995C36.1953 20.989 36.444 20.6143 36.6078 20.2C36.7715 19.7857 36.8465 19.3411 36.8278 18.8955C36.8119 18.4796 36.7142 18.071 36.5404 17.6935C36.3667 17.3159 36.1203 16.977 35.8156 16.6963C35.5109 16.4156 35.154 16.1988 34.7655 16.0584C34.3771 15.918 33.9648 15.8569 33.5528 15.8785C33.3839 15.8859 33.2159 15.9069 33.0504 15.9414L32.7428 16.0082L22.0219 5.13046L22.0687 4.83583C22.135 4.3999 22.1102 3.95478 21.9959 3.52909C21.8815 3.1034 21.6802 2.70654 21.4048 2.364C21.1294 2.02147 20.786 1.74084 20.3967 1.54013C20.0073 1.33943 19.5807 1.22309 19.1442 1.1986C18.7077 1.1741 18.2709 1.24199 17.8619 1.3979C17.4529 1.55381 17.0808 1.79429 16.7694 2.1039C16.458 2.41351 16.2143 2.7854 16.0539 3.19567C15.8935 3.60595 15.8199 4.04554 15.8379 4.4862C15.8455 4.67015 15.8703 4.85297 15.9119 5.03225L15.982 5.34652L5.37794 16.1064L5.05861 16.0278C4.39541 15.8692 3.69886 15.9362 3.07727 16.2182C2.45567 16.5002 1.94386 16.9815 1.62141 17.5872C1.29897 18.193 1.18396 18.8892 1.29427 19.5677C1.40458 20.2462 1.73403 20.8689 2.23139 21.339C2.83879 21.8953 3.63922 22.1875 4.4589 22.1521C4.60788 22.1433 4.75616 22.1249 4.90284 22.0971L5.20659 22.0382ZM19.1597 36.3454C18.5079 36.3454 17.8809 36.0938 17.4073 35.6422C16.9707 35.2297 16.6894 34.6773 16.6112 34.0791C16.5331 33.4808 16.663 32.8737 16.9788 32.3613C17.2946 31.8488 17.7768 31.4626 18.3432 31.2686C18.9095 31.0745 19.5251 31.0845 20.085 31.2969C20.6449 31.5093 21.1145 31.9109 21.4138 32.4334C21.713 32.9558 21.8235 33.5668 21.7263 34.1622C21.6291 34.7576 21.3303 35.3006 20.8807 35.6987C20.4312 36.0968 19.8588 36.3253 19.2609 36.3454H19.1597ZM19.183 32.2952H19.1285C18.7998 32.3042 18.4844 32.4278 18.2359 32.6451C17.9874 32.8624 17.8213 33.1598 17.7659 33.4868C17.7104 33.8137 17.7691 34.15 17.9318 34.4382C18.0945 34.7264 18.3513 34.9488 18.6584 35.0675C18.9654 35.1862 19.3038 35.1938 19.6158 35.0891C19.9278 34.9843 20.1941 34.7737 20.3694 34.4931C20.5447 34.2124 20.6182 33.8792 20.5772 33.55C20.5363 33.2209 20.3835 32.9163 20.1449 32.6881C19.8863 32.4371 19.5418 32.2964 19.183 32.2952ZM33.6852 21.6886C33.0049 21.6806 32.3543 21.4061 31.871 20.923C31.3877 20.4399 31.1096 19.7862 31.0954 19.1C31.0813 18.4138 31.3322 17.749 31.7951 17.246C32.2581 16.7431 32.8967 16.4415 33.5761 16.4049H33.6969C34.203 16.4068 34.6978 16.5565 35.1214 16.836C35.545 17.1154 35.8793 17.5126 36.084 17.9795C36.2887 18.4465 36.3549 18.9633 36.2748 19.4674C36.1946 19.9715 35.9715 20.4415 35.6323 20.8204C35.4001 21.0774 35.12 21.2857 34.8079 21.4333C34.4959 21.5809 34.158 21.665 33.8137 21.6807L33.6852 21.6886ZM33.6852 17.5795H33.619C33.4283 17.5876 33.2412 17.6336 33.0682 17.7148C32.8952 17.7961 32.7399 17.911 32.611 18.053C32.4822 18.195 32.3825 18.3612 32.3175 18.5422C32.2526 18.7232 32.2237 18.9154 32.2326 19.1076C32.2423 19.4002 32.3386 19.6831 32.5091 19.9199C32.6796 20.1567 32.9165 20.3365 33.1893 20.4363C33.4621 20.536 33.7582 20.5511 34.0396 20.4795C34.3209 20.408 34.5745 20.253 34.7678 20.0347C34.8992 19.8936 35.0013 19.7275 35.0682 19.546C35.1351 19.3645 35.1653 19.1714 35.1572 18.978C35.1474 18.7825 35.0982 18.5911 35.0125 18.4154C34.9267 18.2398 34.8064 18.0837 34.6587 17.9566C34.396 17.7132 34.0535 17.5761 33.6969 17.5716L33.6852 17.5795ZM4.31092 21.6532C3.66068 21.6367 3.04309 21.3624 2.59193 20.8898C2.14077 20.4171 1.89238 19.7842 1.90058 19.1281C1.90877 18.472 2.17289 17.8456 2.63571 17.3845C3.09853 16.9235 3.72278 16.665 4.37323 16.665C5.02367 16.665 5.64792 16.9235 6.11074 17.3845C6.57356 17.8456 6.83768 18.472 6.84587 19.1281C6.85407 19.7842 6.60568 20.4171 6.15452 20.8898C5.70337 21.3624 5.08577 21.6367 4.43553 21.6532H4.31092ZM4.31092 17.5952H4.24472C3.87318 17.6221 3.52671 17.7942 3.2791 18.0749C3.03148 18.3556 2.9023 18.7227 2.91905 19.0981C2.9358 19.4735 3.09717 19.8274 3.36879 20.0845C3.6404 20.3417 4.0008 20.4817 4.37323 20.4747C4.73966 20.4491 5.08224 20.2821 5.32987 20.0084C5.57751 19.7348 5.71119 19.3754 5.70318 19.005C5.69516 18.6346 5.54606 18.2814 5.28683 18.0189C5.02759 17.7564 4.67811 17.6047 4.31092 17.5952ZM18.9533 6.98858C18.3037 6.98335 17.6797 6.73241 17.2048 6.2854C16.8251 5.93231 16.5572 5.47392 16.4349 4.96781C16.3126 4.46169 16.3412 3.9304 16.5172 3.44064C16.6932 2.95087 17.0087 2.52447 17.4241 2.21497C17.8395 1.90546 18.3362 1.72665 18.852 1.70098H18.9727C19.6531 1.70897 20.3036 1.98352 20.7869 2.46659C21.2702 2.94967 21.5483 3.6034 21.5625 4.28958C21.5767 4.97576 21.3257 5.6406 20.8628 6.14354C20.3999 6.64649 19.7612 6.94812 19.0818 6.98466L18.9533 6.98858ZM17.9836 5.41723C18.1959 5.61266 18.4609 5.74015 18.7451 5.78357C19.0293 5.82699 19.3199 5.78438 19.58 5.66115C19.8402 5.53792 20.0583 5.3396 20.2066 5.09129C20.355 4.84297 20.4271 4.55584 20.4136 4.26621C20.4062 4.07599 20.3614 3.88913 20.2819 3.7165C20.2023 3.54386 20.0896 3.38888 19.9502 3.26055C19.6847 3.01065 19.3358 2.87045 18.9727 2.86771H18.9026C18.7118 2.87727 18.5247 2.92471 18.3521 3.00732C18.1795 3.08993 18.0247 3.20609 17.8966 3.34913C17.7686 3.49218 17.6697 3.65931 17.6058 3.84095C17.5419 4.02258 17.5141 4.21516 17.5241 4.40764C17.5322 4.6002 17.5781 4.78923 17.6589 4.96384C17.7398 5.13846 17.8541 5.29522 17.9953 5.42509L17.9836 5.41723Z" fill="#5DC1D3"/>
<path d="M19.0273 52C17.9223 51.9961 16.8612 51.5635 16.0637 50.792C15.2663 50.0205 14.7936 48.969 14.7436 47.8555C14.7319 47.6658 14.7319 47.4756 14.7436 47.2859L4.8678 37.2685C4.74318 37.2685 4.62246 37.296 4.49784 37.3C3.64661 37.3395 2.80287 37.1235 2.07339 36.6792C1.34391 36.2349 0.761475 35.5822 0.399788 34.8039C0.0381016 34.0256 -0.0865827 33.1565 0.0415127 32.3067C0.169608 31.4568 0.544726 30.6644 1.1194 30.0297C1.69407 29.395 2.44247 28.9465 3.2699 28.741C4.09733 28.5355 4.96659 28.5822 5.7677 28.8752C6.56881 29.1682 7.26575 29.6943 7.77034 30.387C8.27493 31.0797 8.56449 31.9079 8.60237 32.7666C8.61024 33.0016 8.59852 33.2368 8.56732 33.4698L18.3263 43.3732C18.49 43.3465 18.6552 43.3295 18.8209 43.3222C19.0361 43.3065 19.2521 43.3065 19.4673 43.3222L29.4327 33.2577C29.4327 33.2223 29.4327 33.1909 29.4327 33.1594C29.4209 32.9274 29.4287 32.6948 29.456 32.4641L19.6542 22.5214C19.4281 22.5652 19.199 22.5915 18.9688 22.6C18.1194 22.6326 17.2796 22.4096 16.5562 21.9593C15.8328 21.509 15.2586 20.8518 14.9066 20.0713C14.5546 19.2908 14.4408 18.4223 14.5796 17.5763C14.7183 16.7303 15.1035 15.9451 15.686 15.3207C16.0714 14.9009 16.5356 14.5625 17.0517 14.3251C17.5678 14.0877 18.1254 13.9561 18.6923 13.9379H18.891C19.9944 13.9515 21.05 14.3941 21.8379 15.1735C22.6258 15.9529 23.0851 17.009 23.1201 18.1216C23.1201 18.2394 23.1201 18.3534 23.1201 18.4673L33.1984 28.6811C33.2957 28.6811 33.397 28.6811 33.4944 28.6575H33.6891C34.8195 28.632 35.9137 29.0605 36.7309 29.8488C37.5481 30.6371 38.0214 31.7206 38.0467 32.8609C38.072 34.0012 37.6472 35.105 36.8658 35.9294C36.0844 36.7538 35.0103 37.2312 33.8799 37.2568C33.5856 37.2694 33.2907 37.2522 32.9998 37.2057L23.2914 47.0266C23.3121 47.1672 23.3251 47.3089 23.3304 47.4509C23.3811 48.6002 22.9779 49.723 22.2092 50.5728C21.4405 51.4227 20.369 51.9303 19.2298 51.9843L19.0273 52ZM5.26111 35.9918L15.9664 46.8695L15.9196 47.1641C15.8846 47.3743 15.8728 47.5877 15.8846 47.8005C15.9197 48.6403 16.2841 49.4316 16.8975 50.0003C17.2013 50.2819 17.5571 50.5004 17.9445 50.6433C18.332 50.7863 18.7436 50.8508 19.1558 50.8332C19.5679 50.8157 19.9727 50.7164 20.3468 50.5411C20.721 50.3658 21.0573 50.1178 21.3364 49.8114C21.6156 49.505 21.8322 49.1461 21.9739 48.7553C22.1155 48.3644 22.1795 47.9492 22.1621 47.5334C22.1525 47.3496 22.1278 47.167 22.0881 46.9874L22.018 46.6731L32.622 35.9132L32.9414 35.9918C33.3732 36.1034 33.8238 36.1195 34.2624 36.0389C34.7009 35.9584 35.117 35.7832 35.4822 35.5253C35.8473 35.2673 36.1529 34.9328 36.3779 34.5446C36.6029 34.1564 36.742 33.7238 36.7857 33.2763C36.8295 32.8288 36.7768 32.377 36.6313 31.952C36.4857 31.527 36.2508 31.1387 35.9427 30.8138C35.6345 30.4889 35.2603 30.2351 34.8458 30.0697C34.4313 29.9043 33.9862 29.8313 33.5411 29.8557C33.3921 29.8643 33.2438 29.8827 33.0971 29.9107L32.7934 29.9696L21.8895 18.9151L21.9207 18.6323C21.9305 18.4779 21.9305 18.3231 21.9207 18.1687C21.8966 17.3571 21.562 16.5864 20.987 16.0181C20.412 15.4498 19.6413 15.1281 18.8364 15.1203H18.6885C18.2582 15.1511 17.8389 15.2716 17.4572 15.4744C17.0755 15.6771 16.7398 15.9576 16.4711 16.2981C16.2025 16.6385 16.0069 17.0316 15.8967 17.4523C15.7865 17.873 15.7641 18.3122 15.8309 18.7421C15.8978 19.1719 16.0524 19.5832 16.2849 19.9496C16.5175 20.3161 16.823 20.6299 17.1821 20.871C17.5411 21.1122 17.9459 21.2755 18.3708 21.3507C18.7957 21.4258 19.2314 21.4111 19.6503 21.3075L19.9813 21.2132L30.7061 32.0634L30.6477 32.3698C30.6018 32.6118 30.5848 32.8584 30.597 33.1044C30.597 33.2027 30.597 33.3009 30.6204 33.3952L30.6593 33.6819L19.884 44.5989L19.5841 44.5439C19.3539 44.5046 19.1204 44.4888 18.8871 44.4968C18.6834 44.5067 18.4812 44.537 18.2835 44.5871L17.9602 44.6657L7.32506 33.8705L7.38347 33.5641C7.46372 33.1269 7.45169 32.6777 7.34819 32.2456C7.24469 31.8134 7.05203 31.4082 6.78279 31.0562C6.51355 30.7043 6.17378 30.4136 5.78564 30.203C5.3975 29.9925 4.96972 29.8669 4.53021 29.8344C4.0907 29.8019 3.64933 29.8632 3.23491 30.0144C2.82048 30.1656 2.44232 30.4032 2.12508 30.7118C1.80784 31.0204 1.55865 31.3929 1.39379 31.8052C1.22892 32.2175 1.15208 32.6602 1.16827 33.1044C1.18168 33.5224 1.27764 33.9335 1.45053 34.3135C1.62343 34.6936 1.86978 35.0351 2.17516 35.3179C2.48053 35.6007 2.83878 35.8192 3.22893 35.9605C3.61907 36.1019 4.03326 36.1633 4.44722 36.1411C4.61605 36.1335 4.78402 36.1124 4.94957 36.0782L5.26111 35.9918ZM19.0273 50.3029C18.6013 50.3028 18.1818 50.1979 17.8051 49.9974C17.4284 49.7969 17.1058 49.5068 16.8653 49.1523C16.6247 48.7977 16.4735 48.3893 16.4246 47.9625C16.3757 47.5357 16.4307 47.1033 16.5848 46.7027C16.7388 46.3021 16.9874 45.9455 17.3089 45.6636C17.6303 45.3818 18.0151 45.1832 18.4297 45.0851C18.8444 44.987 19.2766 44.9924 19.6887 45.1007C20.1009 45.209 20.4807 45.417 20.7952 45.7067C21.1723 46.0603 21.4378 46.5181 21.5585 47.0229C21.6793 47.5277 21.65 48.0573 21.4743 48.5454C21.2986 49.0335 20.9843 49.4587 20.5706 49.7677C20.1569 50.0768 19.6621 50.2561 19.148 50.2833L19.0273 50.3029ZM19.0273 46.1938H18.9649C18.5797 46.2117 18.2171 46.3826 17.9563 46.6692C17.8249 46.8103 17.7228 46.9764 17.6559 47.1579C17.589 47.3394 17.5588 47.5325 17.5669 47.7259C17.5743 47.918 17.6198 48.1067 17.7007 48.2808C17.7817 48.4549 17.8964 48.6108 18.0381 48.7394C18.3036 48.9893 18.6525 49.1295 19.0156 49.1323H19.0818C19.2725 49.1252 19.4599 49.0799 19.6331 48.9989C19.8063 48.918 19.9617 48.8031 20.0904 48.6608C20.354 48.3746 20.494 47.9945 20.4798 47.6041C20.4721 47.4115 20.4264 47.2223 20.3455 47.0476C20.2646 46.8729 20.1501 46.7163 20.0086 46.5867C19.7441 46.3377 19.3968 46.1975 19.035 46.1938H19.0273ZM4.30313 35.6068C3.60805 35.6225 2.93527 35.3589 2.43282 34.8741C1.93037 34.3894 1.63939 33.7231 1.62389 33.022C1.6084 32.3208 1.86967 31.6421 2.35021 31.1352C2.83076 30.6284 3.49122 30.3349 4.1863 30.3192C4.88087 30.2874 5.55951 30.5353 6.07292 31.0083C6.58633 31.4812 6.89245 32.1406 6.92395 32.8412C6.95546 33.5419 6.70975 34.2265 6.24089 34.7444C5.77203 35.2623 5.11842 35.5711 4.42385 35.6029L4.30313 35.6068ZM4.30313 31.4977H4.23303C3.85054 31.5177 3.49112 31.6884 3.23221 31.9731C3.10081 32.1142 2.99867 32.2803 2.9318 32.4618C2.86493 32.6433 2.83467 32.8364 2.84279 33.0298C2.85016 33.222 2.89566 33.4106 2.97659 33.5847C3.05753 33.7588 3.17226 33.9148 3.31399 34.0433C3.57949 34.2932 3.92834 34.4334 4.29145 34.4362H4.35765C4.54874 34.429 4.73647 34.3833 4.90972 34.3016C5.08297 34.22 5.23821 34.1041 5.36626 33.9608C5.497 33.8201 5.59875 33.6545 5.6656 33.4738C5.73245 33.2931 5.76307 33.1008 5.75568 32.908C5.73712 32.5196 5.56787 32.1542 5.28448 31.8906C5.01997 31.6416 4.67268 31.5015 4.31092 31.4977H4.30313ZM33.6735 35.5833C32.9988 35.5771 32.353 35.3064 31.8726 34.8284C31.3923 34.3503 31.1153 33.7026 31.1001 33.0221C31.0849 32.3416 31.3328 31.6819 31.7913 31.1826C32.2498 30.6832 32.8829 30.3835 33.5567 30.3467C33.8997 30.33 34.2426 30.3821 34.5655 30.5001C34.8884 30.6182 35.1848 30.7997 35.4376 31.0342C35.8164 31.3834 36.084 31.8382 36.2066 32.3409C36.3291 32.8436 36.301 33.3717 36.1259 33.8583C35.9508 34.3449 35.6365 34.7682 35.2228 35.0745C34.8092 35.3809 34.3147 35.5566 33.802 35.5793L33.6735 35.5833ZM33.6735 31.5252H33.6034C33.2732 31.5361 32.9569 31.6621 32.7084 31.8817C32.4599 32.1013 32.2944 32.401 32.2403 32.7298C32.1861 33.0586 32.2465 33.3962 32.4113 33.6851C32.576 33.974 32.8349 34.1964 33.1439 34.3144C33.4528 34.4325 33.7928 34.4389 34.1059 34.3326C34.4191 34.2263 34.686 34.0138 34.8614 33.7314C35.0368 33.4489 35.1097 33.1139 35.0677 32.7833C35.0258 32.4527 34.8717 32.1469 34.6315 31.9181C34.3776 31.6721 34.041 31.5318 33.6891 31.5252H33.6735ZM18.8131 20.8832C18.0946 20.8698 17.4105 20.5707 16.9095 20.051C16.4085 19.5314 16.1312 18.8332 16.1378 18.1083C16.1445 17.3835 16.4346 16.6906 16.9451 16.1804C17.4556 15.6702 18.1451 15.384 18.8637 15.384C19.5823 15.384 20.2718 15.6702 20.7823 16.1804C21.2927 16.6906 21.5829 17.3835 21.5895 18.1083C21.5962 18.8332 21.3189 19.5314 20.8179 20.051C20.3169 20.5707 19.6328 20.8698 18.9143 20.8832H18.8131ZM18.8364 16.8331H18.7819C18.5942 16.8372 18.4093 16.8793 18.238 16.9569C18.0668 17.0345 17.9127 17.146 17.785 17.2848C17.6562 17.4222 17.5555 17.5837 17.4887 17.7603C17.4219 17.937 17.3902 18.1251 17.3956 18.3141C17.4098 18.6934 17.5721 19.0516 17.8471 19.3107C18.1222 19.5697 18.4876 19.7086 18.8637 19.6969C19.051 19.6926 19.2356 19.6508 19.4067 19.5739C19.5779 19.497 19.7322 19.3866 19.8606 19.249C20.1196 18.971 20.2596 18.6012 20.25 18.2198C20.2399 17.8491 20.0871 17.497 19.8239 17.2381C19.5607 16.9793 19.2079 16.834 18.8403 16.8331H18.8364Z" fill="#5DC1D3"/>
</g>
<defs>
<clipPath id="clip0">
<rect width="38" height="52" fill="white"/>
</clipPath>
</defs>
</svg>
