<svg width="356" height="335" viewBox="0 0 356 335" fill="none" xmlns="http://www.w3.org/2000/svg">
<path d="M48.0483 249.562H55.6585L55.4335 255.32L55.6585 255.453C58.064 251.112 64.0395 248.941 73.5852 248.941C81.2905 248.941 86.5048 250.005 89.229 252.131C91.9545 254.256 93.3165 258.332 93.3165 264.356V291.906H85.424V264.887V263.292C85.424 259.66 84.5404 257.217 82.775 255.962C81.0078 254.707 77.6063 254.081 72.5706 254.081C61.4827 254.081 55.9394 258.199 55.9394 266.438V291.906H48.0469V249.562H48.0483Z" fill="#ABC837"/>
<path d="M145.077 279.105H153.138L153.195 280.655C153.195 285.055 151.494 288.133 148.092 289.89C144.691 291.647 138.724 292.525 130.193 292.525C120.271 292.525 113.759 291.1 110.659 288.251C107.559 285.401 106.008 279.414 106.008 270.29C106.008 261.846 107.567 256.175 110.688 253.282C113.807 250.389 119.915 248.941 129.01 248.941C138.931 248.941 145.433 250.196 148.516 252.706C151.598 255.217 153.138 260.503 153.138 268.563V271.885H114.353C114.353 278.558 115.264 282.81 117.087 284.641C118.91 286.472 123.167 287.388 129.856 287.388C136.207 287.388 140.332 286.952 142.23 286.081C144.129 285.211 145.077 283.327 145.077 280.434V279.105ZM145.077 267.057L145.021 265.064C145.021 260.487 144.062 257.512 142.146 256.14C140.229 254.767 136.095 254.081 129.743 254.081C123.354 254.081 119.21 254.885 117.312 256.495C115.414 258.104 114.466 261.625 114.466 267.059H145.077V267.057Z" fill="#ABC837"/>
<path d="M165.539 249.563H173.432L173.263 255.941L173.432 256.074C176.476 251.321 182.339 248.943 191.021 248.943C200.155 248.943 205.698 251.321 207.652 256.074H207.877C211.26 251.321 217.442 248.943 226.425 248.943C239.129 248.943 245.481 254.036 245.481 264.224V291.907H237.588V263.648C237.588 259.928 236.742 257.403 235.051 256.074C233.361 254.745 230.165 254.081 225.468 254.081C219.229 254.081 215.001 255.005 212.783 256.849C210.565 258.694 209.457 262.215 209.457 267.413V291.907H201.564V264.224L201.452 262.276C201.452 256.812 197.487 254.081 189.557 254.081C178.808 254.081 173.433 258.672 173.433 267.856V291.907H165.54V249.563H165.539Z" fill="#ABC837"/>
<path d="M283.196 248.943C293.155 248.943 299.62 250.302 302.589 253.019C305.558 255.736 307.042 261.641 307.042 270.735C307.042 279.83 305.558 285.736 302.589 288.452C299.62 291.169 293.155 292.528 283.196 292.528C273.274 292.528 266.829 291.169 263.86 288.452C260.891 285.735 259.406 279.83 259.406 270.735C259.406 261.641 260.891 255.735 263.86 253.019C266.829 250.3 273.274 248.943 283.196 248.943ZM283.196 254.081C276.206 254.081 271.873 254.975 270.202 256.761C268.529 258.547 267.692 263.206 267.692 270.735C267.692 278.265 268.528 282.924 270.202 284.71C271.873 286.496 276.206 287.39 283.196 287.39C290.224 287.39 294.575 286.496 296.247 284.71C297.919 282.924 298.756 278.265 298.756 270.735C298.756 263.206 297.92 258.547 296.247 256.761C294.575 254.973 290.224 254.081 283.196 254.081Z" fill="#ABC837"/>
<path d="M168.852 176.461H185.473V185.572H168.852V176.461Z" fill="#ABC837"/>
<path d="M227.334 135.815C203.968 135.815 185.023 156.106 185.023 181.134C185.023 206.161 203.968 226.489 227.334 226.489C250.7 226.489 269.678 206.16 269.678 181.134C269.678 156.108 250.7 135.815 227.334 135.815ZM227.334 148.99C243.907 148.99 257.378 163.38 257.378 181.132C257.378 198.884 243.907 213.313 227.334 213.313C210.76 213.313 197.325 198.884 197.325 181.132C197.325 163.38 210.76 148.99 227.334 148.99Z" fill="#ABC837"/>
<path d="M127.709 135.815C104.343 135.815 85.3984 156.106 85.3984 181.134C85.3984 206.161 104.344 226.489 127.709 226.489C151.075 226.489 170.053 206.16 170.053 181.134C170.053 156.108 151.075 135.815 127.709 135.815ZM127.709 148.99C144.283 148.99 157.753 163.38 157.753 181.132C157.753 198.884 144.283 213.313 127.709 213.313C111.135 213.313 97.6997 198.884 97.6997 181.132C97.6997 163.38 111.135 148.99 127.709 148.99Z" fill="#ABC837"/>
<path d="M139.672 144.222L155.865 117.759L165.749 124.698L149.558 151.161L139.672 144.222Z" fill="#ABC837"/>
<path d="M177.631 43.0254C154.265 43.0254 135.32 63.3169 135.32 88.3448C135.32 113.372 154.265 133.699 177.631 133.699C200.997 133.699 219.975 113.371 219.975 88.3448C219.976 63.3169 200.997 43.0254 177.631 43.0254ZM177.631 56.2C194.205 56.2 207.675 70.5913 207.675 88.3433C207.675 106.095 194.205 120.523 177.631 120.523C161.058 120.523 147.622 106.095 147.622 88.3433C147.622 70.5928 161.058 56.2 177.631 56.2Z" fill="#ABC837"/>
<path d="M214.855 144.222L198.662 117.759L188.777 124.698L204.97 151.161L214.855 144.222Z" fill="#ABC837"/>
</svg>
