<svg width="61" height="61" viewBox="0 0 61 61" fill="none" xmlns="http://www.w3.org/2000/svg">
<g clip-path="url(#clip0)">
<path d="M30.5 18.2079C23.7555 18.2079 19.566 21.6608 19.566 27.2544C19.566 27.89 20.0814 28.4053 20.717 28.4053H40.283C40.9186 28.4053 41.434 27.89 41.434 27.2544C41.434 21.6723 37.2445 18.2079 30.5 18.2079ZM21.9485 26.1034C22.7081 20.9357 28.6125 20.5098 30.5 20.5098C32.3876 20.5098 38.2919 20.9357 39.0515 26.1034H21.9485Z" fill="#5DC1D3"/>
<path d="M30.5 6.12299C27.4806 6.12299 25.033 8.57061 25.033 11.59C25.0394 14.6067 27.4832 17.0506 30.5 17.057C33.5194 17.057 35.967 14.6093 35.967 11.59C35.967 8.57061 33.5194 6.12299 30.5 6.12299ZM30.5 14.7551C28.752 14.7551 27.3349 13.338 27.3349 11.59C27.3349 9.84197 28.752 8.42487 30.5 8.42487C32.248 8.42487 33.6651 9.84197 33.6651 11.59C33.6651 13.338 32.248 14.7551 30.5 14.7551Z" fill="#5DC1D3"/>
<path d="M10.934 44.6796C4.18943 44.6796 0 48.1325 0 53.726C0 54.3616 0.515335 54.877 1.15094 54.877H20.717C21.3526 54.877 21.8679 54.3616 21.8679 53.726C21.8679 48.144 17.6785 44.6796 10.934 44.6796ZM2.38245 52.5751C3.14208 47.4074 9.0349 46.9815 10.934 46.9815C12.833 46.9815 18.7258 47.4074 19.4855 52.5751H2.38245Z" fill="#5DC1D3"/>
<path d="M10.934 32.5947C7.91461 32.5947 5.46698 35.0424 5.46698 38.0617C5.47331 41.0785 7.91719 43.5224 10.934 43.5287C13.9533 43.5287 16.4009 41.0811 16.4009 38.0617C16.4009 35.0424 13.9533 32.5947 10.934 32.5947ZM10.934 41.2268C9.18597 41.2268 7.76887 39.8097 7.76887 38.0617C7.76887 36.3137 9.18597 34.8966 10.934 34.8966C12.682 34.8966 14.0991 36.3137 14.0991 38.0617C14.0991 39.8097 12.682 41.2268 10.934 41.2268Z" fill="#5DC1D3"/>
<path d="M50.066 44.6796C43.3215 44.6796 39.1321 48.1325 39.1321 53.726C39.1321 54.3616 39.6474 54.877 40.283 54.877H59.8491C60.4847 54.877 61 54.3616 61 53.726C61 48.144 56.8106 44.6796 50.066 44.6796ZM41.5145 52.5751C42.2742 47.4074 48.167 46.9815 50.066 46.9815C51.9651 46.9815 57.8579 47.4074 58.6176 52.5751H41.5145Z" fill="#5DC1D3"/>
<path d="M50.066 32.5947C47.0467 32.5947 44.5991 35.0424 44.5991 38.0617C44.6054 41.0785 47.0493 43.5224 50.066 43.5287C53.0854 43.5287 55.533 41.0811 55.533 38.0617C55.533 35.0424 53.0854 32.5947 50.066 32.5947ZM50.066 41.2268C48.318 41.2268 46.9009 39.8097 46.9009 38.0617C46.9009 36.3137 48.318 34.8966 50.066 34.8966C51.814 34.8966 53.2311 36.3137 53.2311 38.0617C53.2311 39.8097 51.814 41.2268 50.066 41.2268Z" fill="#5DC1D3"/>
<path d="M36.4504 42.6885L31.6509 37.8661V31.0755C31.6509 30.4399 31.1356 29.9246 30.5 29.9246C29.8644 29.9246 29.3491 30.4399 29.3491 31.0755V37.8661L24.5496 42.6655C24.0951 43.1136 24.09 43.8454 24.5381 44.2998C24.9863 44.7543 25.718 44.7595 26.1725 44.3113L30.5 39.9723L34.8275 44.3113C35.3104 44.7248 36.0369 44.6686 36.4504 44.1858C36.8194 43.7549 36.8194 43.1194 36.4504 42.6885Z" fill="#5DC1D3"/>
</g>
<defs>
<clipPath id="clip0">
<rect width="61" height="61" fill="white"/>
</clipPath>
</defs>
</svg>
