<svg width="22" height="21" viewBox="0 0 22 21" fill="none" xmlns="http://www.w3.org/2000/svg">
<g clip-path="url(#clip0)">
<path d="M16.6494 13.0086C16.2221 12.5609 15.7068 12.3216 15.1606 12.3216C14.6188 12.3216 14.0991 12.5565 13.6542 13.0041L12.2623 14.4003C12.1478 14.3382 12.0333 14.2806 11.9232 14.223C11.7646 14.1432 11.6148 14.0679 11.4871 13.9881C10.1833 13.1548 8.99845 12.0689 7.86204 10.6639C7.31146 9.96364 6.94146 9.37416 6.67278 8.77581C7.03396 8.4434 7.36872 8.09768 7.69467 7.76527C7.818 7.64117 7.94133 7.51263 8.06466 7.38853C8.98964 6.45777 8.98964 5.25221 8.06466 4.32145L6.86218 3.11146C6.72564 2.97406 6.58469 2.83223 6.45254 2.6904C6.18826 2.4156 5.91077 2.13194 5.62446 1.86601C5.19721 1.44052 4.68627 1.21448 4.1489 1.21448C3.61152 1.21448 3.09177 1.44052 2.6513 1.86601C2.6469 1.87044 2.6469 1.87044 2.64249 1.87488L1.1449 3.39512C0.581101 3.96244 0.259559 4.65387 0.189084 5.45609C0.0833717 6.7503 0.462175 7.95585 0.752884 8.74479C1.46644 10.6817 2.53238 12.4767 4.12247 14.4003C6.05172 16.7183 8.37299 18.5488 11.0246 19.8386C12.0377 20.3217 13.3899 20.8934 14.9007 20.991C14.9932 20.9954 15.0901 20.9998 15.1782 20.9998C16.1957 20.9998 17.0502 20.6319 17.7197 19.9006C17.7241 19.8918 17.7329 19.8873 17.7373 19.8785C17.9664 19.5992 18.2307 19.3466 18.5082 19.0762C18.6976 18.8945 18.8914 18.7039 19.0808 18.5045C19.5168 18.048 19.7459 17.5161 19.7459 16.9709C19.7459 16.4214 19.5124 15.8939 19.0676 15.4507L16.6494 13.0086ZM18.2263 17.6757C18.2219 17.6757 18.2219 17.6801 18.2263 17.6757C18.0545 17.8618 17.8783 18.0302 17.6889 18.2164C17.4026 18.4912 17.1119 18.7793 16.8388 19.1028C16.3939 19.5815 15.8698 19.8076 15.1826 19.8076C15.1166 19.8076 15.0461 19.8076 14.98 19.8031C13.6718 19.7189 12.4561 19.2048 11.5444 18.766C9.05131 17.5516 6.86218 15.8274 5.04305 13.6424C3.54105 11.8207 2.53678 10.1365 1.87167 8.32816C1.46204 7.22454 1.31228 6.36469 1.37835 5.5536C1.4224 5.03503 1.62061 4.60511 1.9862 4.23724L3.48819 2.72586C3.70402 2.52198 3.93307 2.41117 4.1577 2.41117C4.4352 2.41117 4.65984 2.5796 4.80079 2.72143C4.80519 2.72586 4.8096 2.73029 4.814 2.73472C5.08269 2.98736 5.33816 3.24886 5.60685 3.52809C5.74339 3.66992 5.88434 3.81175 6.02529 3.95801L7.22777 5.168C7.69467 5.63781 7.69467 6.07217 7.22777 6.54198C7.10003 6.67052 6.9767 6.79905 6.84897 6.92315C6.47897 7.30432 6.1266 7.6589 5.74339 8.00461C5.73458 8.01347 5.72577 8.0179 5.72137 8.02677C5.34256 8.40794 5.41304 8.78024 5.49232 9.03288C5.49673 9.04618 5.50113 9.05947 5.50554 9.07277C5.81827 9.83511 6.25874 10.5531 6.92825 11.4085L6.93266 11.413C8.14835 12.9199 9.43011 14.0945 10.844 14.9942C11.0246 15.1094 11.2096 15.2025 11.3858 15.2911C11.5444 15.3709 11.6941 15.4463 11.8219 15.5261C11.8395 15.5349 11.8571 15.5482 11.8747 15.5571C12.0245 15.6324 12.1654 15.6679 12.3108 15.6679C12.6764 15.6679 12.9054 15.4374 12.9803 15.3621L14.4867 13.8462C14.6364 13.6956 14.8743 13.5138 15.1518 13.5138C15.4249 13.5138 15.6495 13.6867 15.7861 13.8374C15.7905 13.8418 15.7905 13.8418 15.7949 13.8462L18.2219 16.2884C18.6755 16.7405 18.6755 17.2059 18.2263 17.6757Z" fill="#5DC1D3"/>
<path d="M11.4343 4.99496C12.5883 5.18997 13.6366 5.73957 14.4735 6.58168C15.3104 7.4238 15.8522 8.47866 16.0504 9.6399C16.0988 9.93242 16.3499 10.1363 16.6362 10.1363C16.6714 10.1363 16.7023 10.1319 16.7375 10.1274C17.0635 10.0743 17.2793 9.764 17.2264 9.43602C16.9886 8.03101 16.3279 6.75011 15.3192 5.73513C14.3105 4.72016 13.0376 4.05533 11.6413 3.81599C11.3154 3.76281 11.0114 3.97999 10.9542 4.30354C10.8969 4.62709 11.1083 4.94177 11.4343 4.99496Z" fill="#5DC1D3"/>
<path d="M21.0013 9.26379C20.6093 6.95018 19.5257 4.84489 17.8608 3.16952C16.1958 1.49415 14.1036 0.403831 11.8043 0.00936625C11.4828 -0.0482523 11.1789 0.173357 11.1216 0.496908C11.0687 0.82489 11.2846 1.13071 11.6105 1.18833C13.6631 1.53847 15.5351 2.51799 17.0239 4.01164C18.5127 5.50972 19.4817 7.3934 19.8297 9.4588C19.8781 9.75133 20.1292 9.95521 20.4155 9.95521C20.4507 9.95521 20.4816 9.95078 20.5168 9.94635C20.8383 9.89759 21.0586 9.58734 21.0013 9.26379Z" fill="#5DC1D3"/>
</g>
<defs>
<clipPath id="clip0">
<rect width="20.8697" height="21" fill="white" transform="translate(0.155884)"/>
</clipPath>
</defs>
</svg>
