<svg width="52" height="52" viewBox="0 0 52 52" fill="none" xmlns="http://www.w3.org/2000/svg">
<g clip-path="url(#clip0)">
<path d="M51.1337 34.6658H50.267V1.73329H51.1337C51.6123 1.73329 52.0003 1.34525 52.0003 0.866645C52.0003 0.38804 51.6123 0 51.1337 0H0.86824C0.389635 0 0.00159454 0.38804 0.00159454 0.866645C0.00159454 1.34525 0.389635 1.73329 0.86824 1.73329H1.73488V34.6658H0.86824C0.389635 34.6658 0.00159454 35.0538 0.00159454 35.5324C0.00159454 36.011 0.389635 36.3991 0.86824 36.3991H15.2658L10.4464 50.8582C10.2952 51.3129 10.5412 51.8041 10.9959 51.9554C11.4505 52.1066 11.9418 51.8606 12.093 51.4059L17.0918 36.3991H34.9101L39.9123 51.4059C40.0636 51.8606 40.5548 52.1066 41.0095 51.9554C41.4642 51.8041 41.7102 51.3129 41.559 50.8582L36.7361 36.3991H51.1337C51.6123 36.3991 52.0003 36.011 52.0003 35.5324C52.0003 35.0538 51.6123 34.6658 51.1337 34.6658ZM48.5337 34.6658H3.46817V1.73329H48.5337V34.6658Z" fill="#5DC1D3"/>
<path d="M28.5999 3.46655C27.164 3.46655 26 4.63057 26 6.06649C26 7.50241 27.164 8.66642 28.5999 8.66642C30.0359 8.66642 31.1999 7.50241 31.1999 6.06649C31.1999 4.63057 30.0359 3.46655 28.5999 3.46655ZM28.5999 6.93313C28.1213 6.93313 27.7333 6.54509 27.7333 6.06649C27.7333 5.58788 28.1213 5.19984 28.5999 5.19984C29.0786 5.19984 29.4666 5.58788 29.4666 6.06649C29.4666 6.54509 29.0786 6.93313 28.5999 6.93313Z" fill="#5DC1D3"/>
<path d="M28.5999 10.3997C27.164 10.3997 26 11.5637 26 12.9997C26 14.4356 27.164 15.5996 28.5999 15.5996C30.0359 15.5996 31.1999 14.4356 31.1999 12.9997C31.1999 11.5637 30.0359 10.3997 28.5999 10.3997ZM28.5999 13.8663C28.1213 13.8663 27.7333 13.4783 27.7333 12.9997C27.7333 12.521 28.1213 12.133 28.5999 12.133C29.0786 12.133 29.4666 12.521 29.4666 12.9997C29.4666 13.4783 29.0786 13.8663 28.5999 13.8663Z" fill="#5DC1D3"/>
<path d="M28.5999 17.3329C27.164 17.3329 26 18.4969 26 19.9328C26 21.3687 27.164 22.5328 28.5999 22.5328C30.0359 22.5328 31.1999 21.3687 31.1999 19.9328C31.1999 18.4969 30.0359 17.3329 28.5999 17.3329ZM28.5999 20.7995C28.1213 20.7995 27.7333 20.4114 27.7333 19.9328C27.7333 19.4542 28.1213 19.0662 28.5999 19.0662C29.0786 19.0662 29.4666 19.4542 29.4666 19.9328C29.4666 20.4114 29.0786 20.7995 28.5999 20.7995Z" fill="#5DC1D3"/>
<path d="M41.5996 5.19989H32.9332V6.93318H41.5996V5.19989Z" fill="#5DC1D3"/>
<path d="M46.7995 5.19989H43.3329V6.93318H46.7995V5.19989Z" fill="#5DC1D3"/>
<path d="M41.5996 12.1331H32.9332V13.8663H41.5996V12.1331Z" fill="#5DC1D3"/>
<path d="M46.7995 12.1331H43.3329V13.8663H46.7995V12.1331Z" fill="#5DC1D3"/>
<path d="M41.5996 19.0662H32.9332V20.7995H41.5996V19.0662Z" fill="#5DC1D3"/>
<path d="M46.7995 19.0662H43.3329V20.7995H46.7995V19.0662Z" fill="#5DC1D3"/>
<path d="M35.5331 31.1992H34.6665V26.866C34.6665 26.3874 34.2784 25.9994 33.7998 25.9994H30.3332C29.8546 25.9994 29.4666 26.3874 29.4666 26.866V31.1992H27.7333V28.5993C27.7333 28.1207 27.3453 27.7326 26.8667 27.7326H23.4001C22.9215 27.7326 22.5334 28.1207 22.5334 28.5993V31.1992H20.8001V25.1327C20.8001 24.6541 20.4121 24.2661 19.9335 24.2661H16.4669C15.9883 24.2661 15.6003 24.6541 15.6003 25.1327V31.1992H13.867V26.866C13.867 26.3874 13.4789 25.9994 13.0003 25.9994H9.53376C9.05515 25.9994 8.66711 26.3874 8.66711 26.866V31.1992H6.93382V23.3994C6.93382 22.9208 6.54578 22.5328 6.06718 22.5328C5.58857 22.5328 5.20053 22.9208 5.20053 23.3994V32.0659C5.20053 32.5445 5.58857 32.9325 6.06718 32.9325H35.5331C36.0117 32.9325 36.3998 32.5445 36.3998 32.0659C36.3998 31.5873 36.0117 31.1992 35.5331 31.1992ZM12.1337 31.1992H10.4004V27.7326H12.1337V31.1992ZM19.0669 31.1992H17.3336V25.9994H19.0669V31.1992ZM26 31.1992H24.2667V29.4659H26V31.1992ZM32.9332 31.1992H31.1999V27.7326H32.9332V31.1992Z" fill="#5DC1D3"/>
<path d="M45.9329 25.9993H44.1996C43.721 25.9993 43.3329 26.3874 43.3329 26.866C43.3329 27.3446 43.721 27.7326 44.1996 27.7326H45.9329C46.4115 27.7326 46.7995 27.3446 46.7995 26.866C46.7995 26.3874 46.4115 25.9993 45.9329 25.9993Z" fill="#5DC1D3"/>
<path d="M40.733 25.9993H38.9997C38.5211 25.9993 38.1331 26.3874 38.1331 26.866C38.1331 27.3446 38.5211 27.7326 38.9997 27.7326H40.733C41.2116 27.7326 41.5996 27.3446 41.5996 26.866C41.5996 26.3874 41.2116 25.9993 40.733 25.9993Z" fill="#5DC1D3"/>
<path d="M40.733 29.4659H38.9997C38.5211 29.4659 38.1331 29.854 38.1331 30.3326C38.1331 30.8112 38.5211 31.1992 38.9997 31.1992H40.733C41.2116 31.1992 41.5996 30.8112 41.5996 30.3326C41.5996 29.854 41.2116 29.4659 40.733 29.4659Z" fill="#5DC1D3"/>
<path d="M45.9329 29.4659H44.1996C43.721 29.4659 43.3329 29.854 43.3329 30.3326C43.3329 30.8112 43.721 31.1992 44.1996 31.1992H45.9329C46.4115 31.1992 46.7995 30.8112 46.7995 30.3326C46.7995 29.854 46.4115 29.4659 45.9329 29.4659Z" fill="#5DC1D3"/>
<path d="M14.7336 3.46655C9.46861 3.46655 5.20049 7.73467 5.20049 12.9996C5.16442 18.2287 9.37415 22.4967 14.6032 22.5327C14.6466 22.5331 14.6901 22.5331 14.7336 22.5327C19.9986 22.5327 24.2667 18.2646 24.2667 12.9996C24.2667 7.73467 19.9986 3.46655 14.7336 3.46655ZM15.6002 5.24751C19.2191 5.65808 22.0747 8.514 22.4849 12.133H20.7386C20.3502 9.47251 18.2607 7.38303 15.6002 6.99466V5.24751ZM17.798 9.93617C19.4901 11.6286 19.4896 14.3723 17.7971 16.0643C16.1046 17.7563 13.3609 17.7559 11.6689 16.0633C10.8565 15.2508 10.4001 14.1487 10.4003 12.9996C10.3968 11.8495 10.8541 10.7459 11.6699 9.93519C13.3624 8.24317 16.1061 8.24361 17.798 9.93617ZM13.8669 5.24751V6.9938C12.8626 7.13571 11.9108 7.53014 11.1006 8.14037L9.86478 6.90453C11.0134 5.98166 12.4021 5.40675 13.8669 5.24751ZM13.8659 20.7491C9.58496 20.2694 6.50339 16.4101 6.98307 12.1292C7.14698 10.6669 7.72113 9.28077 8.63923 8.13084L9.8742 9.36581C7.87009 12.0508 8.42203 15.852 11.107 17.8561C13.792 19.8602 17.5932 19.3083 19.5973 16.6233C20.2016 15.8138 20.5942 14.8661 20.7393 13.8663H22.4856C22.006 18.1472 18.1468 21.2288 13.8659 20.7491Z" fill="#5DC1D3"/>
</g>
<defs>
<clipPath id="clip0">
<rect width="52" height="52" fill="white"/>
</clipPath>
</defs>
</svg>
