<svg width="45" height="53" viewBox="0 0 45 53" fill="none" xmlns="http://www.w3.org/2000/svg">
<path d="M43.532 0H0.967378C0.433143 0 0 0.397284 0 0.88729V51.4628C0 51.9528 0.433143 52.3501 0.967378 52.3501H43.532C44.0662 52.3501 44.4994 51.9528 44.4994 51.4628V0.88729C44.4994 0.397284 44.0662 0 43.532 0ZM42.5646 50.5755H1.93476V1.77458H42.5646V50.5755Z" fill="#5DC1D3"/>
<path d="M26.3327 11.9356H18.1668C17.7158 11.9356 17.3502 12.3012 17.3502 12.7522C17.3502 13.2032 17.7158 13.5688 18.1668 13.5688H26.3327C26.7836 13.5688 27.1493 13.2032 27.1493 12.7522C27.1493 12.3012 26.7836 11.9356 26.3327 11.9356Z" fill="#5DC1D3"/>
<path d="M15.7169 21.7347H10.8174C10.3664 21.7347 10.0008 22.1004 10.0008 22.5513C10.0008 23.0023 10.3664 23.3679 10.8174 23.3679H15.7169C16.1679 23.3679 16.5335 23.0023 16.5335 22.5513C16.5335 22.1004 16.1679 21.7347 15.7169 21.7347Z" fill="#5DC1D3"/>
<path d="M36.9484 21.7347H18.9834C18.5324 21.7347 18.1668 22.1004 18.1668 22.5513C18.1668 23.0023 18.5324 23.3679 18.9834 23.3679H36.9484C37.3994 23.3679 37.765 23.0023 37.765 22.5513C37.765 22.1004 37.3994 21.7347 36.9484 21.7347Z" fill="#5DC1D3"/>
<path d="M36.9484 25.0012H7.55106C7.1001 25.0012 6.73447 25.3668 6.73447 25.8178C6.73447 26.2687 7.1001 26.6343 7.55106 26.6343H36.9484C37.3993 26.6343 37.765 26.2687 37.765 25.8178C37.765 25.3668 37.3993 25.0012 36.9484 25.0012Z" fill="#5DC1D3"/>
<path d="M28.7825 28.2675H7.55106C7.1001 28.2675 6.73447 28.6331 6.73447 29.0841C6.73447 29.535 7.1001 29.9006 7.55106 29.9006H28.7825C29.2334 29.9006 29.599 29.535 29.599 29.0841C29.599 28.6331 29.2334 28.2675 28.7825 28.2675Z" fill="#5DC1D3"/>
<path d="M36.9483 28.2675H32.0488C31.5978 28.2675 31.2322 28.6331 31.2322 29.0841C31.2322 29.535 31.5978 29.9006 32.0488 29.9006H36.9483C37.3993 29.9006 37.7649 29.535 37.7649 29.0841C37.7649 28.6331 37.3993 28.2675 36.9483 28.2675Z" fill="#5DC1D3"/>
<path d="M36.9483 31.5338H22.2497C21.7987 31.5338 21.4331 31.8994 21.4331 32.3504C21.4331 32.8014 21.7987 33.167 22.2497 33.167H36.9483C37.3993 33.167 37.7649 32.8014 37.7649 32.3504C37.7649 31.8994 37.3993 31.5338 36.9483 31.5338Z" fill="#5DC1D3"/>
<path d="M18.9833 31.5338H7.55106C7.1001 31.5338 6.73447 31.8994 6.73447 32.3504C6.73447 32.8014 7.1001 33.167 7.55106 33.167H18.9833C19.4343 33.167 19.7999 32.8014 19.7999 32.3504C19.7999 31.8994 19.4343 31.5338 18.9833 31.5338Z" fill="#5DC1D3"/>
<path d="M36.9483 34.8002H33.682C33.231 34.8002 32.8654 35.1659 32.8654 35.6168C32.8654 36.0678 33.231 36.4334 33.682 36.4334H36.9483C37.3993 36.4334 37.7649 36.0678 37.7649 35.6168C37.7649 35.1659 37.3993 34.8002 36.9483 34.8002Z" fill="#5DC1D3"/>
<path d="M11.634 34.8002H7.55106C7.1001 34.8002 6.73447 35.1659 6.73447 35.6168C6.73447 36.0678 7.1001 36.4334 7.55106 36.4334H11.634C12.085 36.4334 12.4506 36.0678 12.4506 35.6168C12.4506 35.1659 12.085 34.8002 11.634 34.8002Z" fill="#5DC1D3"/>
<path d="M30.4156 34.8002H14.9003C14.4494 34.8002 14.0837 35.1659 14.0837 35.6168C14.0837 36.0678 14.4494 36.4334 14.9003 36.4334H30.4156C30.8665 36.4334 31.2322 36.0678 31.2322 35.6168C31.2322 35.1659 30.8665 34.8002 30.4156 34.8002Z" fill="#5DC1D3"/>
<path d="M29.599 8.66919H14.9003C14.4494 8.66919 14.0837 9.03482 14.0837 9.48578C14.0837 9.93674 14.4494 10.3024 14.9003 10.3024H29.599C30.05 10.3024 30.4156 9.93674 30.4156 9.48578C30.4156 9.03482 30.05 8.66919 29.599 8.66919Z" fill="#5DC1D3"/>
<path d="M36.9483 16.8352H27.1492C26.6983 16.8352 26.3326 17.2008 26.3326 17.6518C26.3326 18.1028 26.6983 18.4684 27.1492 18.4684H36.9483C37.3993 18.4684 37.7649 18.1028 37.7649 17.6518C37.7649 17.2008 37.3993 16.8352 36.9483 16.8352Z" fill="#5DC1D3"/>
<path d="M25.5161 38.0666H7.55106C7.1001 38.0666 6.73447 38.4322 6.73447 38.8832C6.73447 39.3341 7.1001 39.6998 7.55106 39.6998H25.5161C25.967 39.6998 26.3327 39.3341 26.3327 38.8832C26.3327 38.4322 25.967 38.0666 25.5161 38.0666Z" fill="#5DC1D3"/>
</svg>
