<svg width="60" height="60" viewBox="0 0 60 60" fill="none" xmlns="http://www.w3.org/2000/svg">
<path d="M60 26V6C60 5.44775 59.5522 5 59 5H31C30.4478 5 30 5.44775 30 6V26C30 26.5523 30.4478 27 31 27H39.72L39.22 29H26.974C26.2264 28.0031 25.1325 27.3225 23.908 27.092C23.4708 24.7241 21.4079 23.0043 19 23H17C14.5921 23.0043 12.5293 24.7241 12.092 27.092C10.8675 27.3225 9.77363 28.0031 9.026 29H1C0.44775 29 0 29.4478 0 30V54C0 54.5523 0.44775 55 1 55C1.55225 55 2 54.5523 2 54V35H8V37H7C5.34312 37 4 38.3431 4 40V42C4 43.6569 5.34312 45 7 45H15V48C15 48.5523 15.4478 49 16 49H17V51H12C11.4478 51 11 51.4478 11 52V54C11 54.5523 11.4478 55 12 55C12.5522 55 13 54.5523 13 54V53H17V54C17 54.5523 17.4478 55 18 55C18.5522 55 19 54.5523 19 54V53H23V54C23 54.5523 23.4478 55 24 55C24.5522 55 25 54.5523 25 54V52C25 51.4478 24.5522 51 24 51H19V49H20C20.5522 49 21 48.5523 21 48V45H29C30.6569 45 32 43.6569 32 42V40C32 38.3431 30.6569 37 29 37H28V35H58V54C58 54.5523 58.4478 55 59 55C59.5522 55 60 54.5523 60 54V30C60 29.4478 59.5522 29 59 29H50.78L50.28 27H59C59.5522 27 60 26.5523 60 26ZM8 43H7C6.44775 43 6 42.5523 6 42V40C6 39.4478 6.44775 39 7 39H8V43ZM8 32V33H2V31H8.1C8.03312 31.3291 7.99963 31.6641 8 32ZM17 25H19C20.271 25.0015 21.4036 25.8023 21.829 27H14.171C14.5964 25.8023 15.729 25.0015 17 25ZM19 47H17V45H19V47ZM26 43H10V38V32C10 30.3431 11.3431 29 13 29H23C24.6569 29 26 30.3431 26 32V43ZM29 39C29.5522 39 30 39.4478 30 40V42C30 42.5523 29.5522 43 29 43H28V39H29ZM58 31V33H28V32C28.0004 31.6641 27.9669 31.3291 27.9 31H58ZM41.281 29L41.781 27H48.219L48.719 29H41.281ZM58 25H32V23H58V25ZM58 21H32V7H58V21Z" fill="#5DC1D3"/>
<path d="M18 12C15.2386 12 13 14.2386 13 17C13 19.7614 15.2386 22 18 22C20.7614 22 23 19.7614 23 17C22.9967 14.24 20.76 12.0032 18 12ZM18 20C16.3431 20 15 18.6569 15 17C15 15.3431 16.3431 14 18 14C19.6569 14 21 15.3431 21 17C21 18.6569 19.6569 20 18 20Z" fill="#5DC1D3"/>
</svg>
